<svg xmlns="http://www.w3.org/2000/svg" viewBox="0 0 285.37 219.53"><defs><style>.cls-1{fill:#ffc425;}.cls-2{fill:#8e0c3a;}</style></defs><title>Asset 1</title><g id="Layer_2" data-name="Layer 2"><g id="Layer_1-2" data-name="Layer 1"><path class="cls-1" d="M100.1,46.09c-9.44,5-15,10.12-22.28,20.12l0,0-1.71,2c1.88-.88,4.48-2.13,7-3.06.9-.34,2.65-.83,2.65-.83-.36.6-1.08,1.82-1.33,2.29-5.48,10.09-9.18,28.19-11,37.11-.21,1-.39,1.92-.55,2.65a2.67,2.67,0,0,1-.58,1.22,3.11,3.11,0,0,1-1,.8l-7,3.16a2.13,2.13,0,0,1-.86.2h0a1.77,1.77,0,0,1-1.32-.57s-.06-.08-.1-.11a2.4,2.4,0,0,1-.57-1.51c-.06-.75-.12-1.54-.18-2.36-.17-2.38-.3-5-.42-7.85-.58-15-.41-34.85-.29-47,0-4,.08-7.51.07-10.14v-.05l0,0-2.43-2.5a21.45,21.45,0,0,1,2.82,1.47c.68.42,1.45.91,2.27,1.51a38.43,38.43,0,0,1,3.64,3l.9.85.27.27-.07-.38c-1.56-8-2.68-14.06-4.37-19.83a77.26,77.26,0,0,0-2.54-7.3c-1.42-3.5-3.2-8.55-5.58-12.7l-.08-.16-.09.16c-2.38,4.14-4.18,9.18-5.61,12.69a75.27,75.27,0,0,0-2.55,7.29c-1.72,5.77-2.85,11.83-4.43,19.82l-.08.37.27-.26c.31-.29.61-.58.91-.85a38.22,38.22,0,0,1,3.64-2.94c.83-.59,1.59-1.09,2.28-1.51a19.93,19.93,0,0,1,2.83-1.45c-.37.37-1.63,1.65-2.44,2.49l0,0v0h0c0,2.63,0,6.11,0,10.13.08,12.17.2,32.06-.43,47-.12,2.82-.26,5.45-.43,7.85-.07.81-.13,1.6-.19,2.35a2.38,2.38,0,0,1-.58,1.51l-.09.11a1.78,1.78,0,0,1-1.32.56h0a2.13,2.13,0,0,1-.86-.2l-2.24-1-4.71-2.16a3.07,3.07,0,0,1-1-.8,2.77,2.77,0,0,1-.58-1.22l-.54-2.64c-1.79-8.94-5.44-27-10.9-37.15-.25-.47-1-1.7-1.32-2.29,0,0,1.75.5,2.65.82,2.55.94,5.15,2.21,7,3.1l-1.7-2,0,0C25.75,56.12,20.19,51,10.76,46c-1.06-.57-2.15-1.13-3.31-1.69l-.39-.19.23.36C22.67,68,26.67,94.08,29.7,119.56l.08.75,3.43-3,15.58,8,0,8.79h13l.05-8.78,15.6-7.92,3.42,3,.09-.74c3.11-25.48,7.17-51.55,22.61-75.07l.24-.36-.39.19c-1.16.57-2.25,1.12-3.32,1.69"/><polyline class="cls-1" points="48.78 135.93 48.77 140.41 55.3 140.43 61.83 140.43 61.83 135.95 48.78 135.93"/><path class="cls-2" d="M109.91,37.47C79.37,50.48,70.82,73,70.8,73l-.35.92.85-.51a96.62,96.62,0,0,1,10-5.11,173,173,0,0,0-10.92,32.57c-.18.92-.5,1.68-.66,2.41a4.17,4.17,0,0,1-.37,1.13,4,4,0,0,1-1.1,1.15c-.39.32-2.48,1.34-2.48,1.35s-.46.24-1,.48l-.72.33h0l-.11-1.89c-.68-17.81-.9-29-.89-37.34,0-9,.29-14.66.55-21.84,2,1.6,8,6.59,8,6.59l.65.54L72.12,53a140.1,140.1,0,0,0-8-34.38q-1.37-3.71-2.69-6.49C58.51,5.81,55.92.83,55.8.59L55.5,0l-.31.59c-.13.23-2.73,5.21-5.72,11.53-.87,1.86-1.79,4-2.7,6.47A140.5,140.5,0,0,0,38.72,53l-.08.82.64-.52,8-6.58c.24,7.18.5,12.9.49,21.85,0,8.35-.26,19.53-1,37.34l-.11,1.88c-.63-.25-1.72-.82-1.72-.82s-2.1-1-2.49-1.35a4.31,4.31,0,0,1-1.09-1.15,3.73,3.73,0,0,1-.37-1.14c-.16-.73-.47-1.49-.65-2.41a173.21,173.21,0,0,0-10.82-32.6,95.11,95.11,0,0,1,9.95,5.14l.85.51L40,73S31.49,50.4,1,37.32l-1-.43.55.92s3.75,6.28,8,14.49,8.92,18.36,10.81,26.06c1.75,7.14,7.15,30.28,7.12,49.88,0,2-.06,3.9-.19,5.79l.66.18s1-2,2.35-4.35a65.44,65.44,0,0,1,3.46-5.63l6.4,51.1.69,0,2.5-38.25,12.53,82.47h.69L68.3,137.1l2.39,38.25.69,0,6.55-51.08a62.42,62.42,0,0,1,3.43,5.65c1.31,2.34,2.34,4.35,2.34,4.36l.66-.19c-.12-1.88-.17-3.82-.17-5.78,0-19.6,5.49-42.74,7.27-49.87,1.91-7.7,6.63-17.83,10.87-26s8-14.45,8-14.47l.55-.92-1,.43M55.21,205.84l-5.75-52.48h5.82l5.82,0Zm6.57-58.46-.43,4.25H49.22l-.43-4.25,0-.18h13Zm-11.61-1.95v-3.27H60.42v3.27Zm11.66-5H55.3l-6.53,0v-4.47l13.06,0Zm41.74-95.86C88.13,68.1,84.06,94.16,81,119.64l-.09.74-3.42-3-15.6,7.93,0,8.78h-13l0-8.79-15.58-8-3.43,3-.08-.75c-3-25.48-7-51.56-22.41-75.12l-.23-.36.39.18c1.16.57,2.25,1.13,3.31,1.69,9.43,5,15,10.16,22.22,20.19l0,0,1.7,2c-1.87-.88-4.47-2.15-7-3.08-.9-.33-2.65-.83-2.65-.83.36.6,1.07,1.82,1.32,2.28,5.46,10.11,9.11,28.22,10.9,37.15l.54,2.65a2.77,2.77,0,0,0,.58,1.22,2.87,2.87,0,0,0,1,.79l4.71,2.16,2.24,1a2.15,2.15,0,0,0,.86.19h0a1.73,1.73,0,0,0,1.31-.57l.1-.11a2.36,2.36,0,0,0,.58-1.5c.07-.75.13-1.54.19-2.36.17-2.38.31-5,.43-7.85.63-14.95.51-34.85.43-47,0-4-.06-7.51,0-10.13h0v0l0,0,2.44-2.48a18.88,18.88,0,0,0-2.83,1.45c-.69.41-1.45.92-2.28,1.5a40.07,40.07,0,0,0-3.64,3c-.3.27-.6.55-.9.85l-.28.26.08-.37c1.58-8,2.71-14.06,4.43-19.82a76.39,76.39,0,0,1,2.55-7.3C51.22,15.68,53,10.64,55.4,6.5l.08-.16.09.16c2.38,4.15,4.15,9.19,5.58,12.7,1,2.47,1.82,4.85,2.54,7.3,1.69,5.77,2.81,11.84,4.37,19.83l.07.38-.27-.27-.9-.85a42.09,42.09,0,0,0-3.64-3c-.82-.59-1.59-1.08-2.27-1.5a20.24,20.24,0,0,0-2.82-1.47l2.43,2.49,0,0v.05c0,2.63,0,6.11-.07,10.13-.12,12.18-.29,32.06.29,47,.11,2.82.25,5.47.41,7.85.07.81.13,1.6.19,2.36a2.4,2.4,0,0,0,.57,1.51,1.09,1.09,0,0,1,.1.11,1.76,1.76,0,0,0,1.31.57h0a2.31,2.31,0,0,0,.86-.2l2.24-1,4.71-2.15a2.91,2.91,0,0,0,1-.79,2.77,2.77,0,0,0,.58-1.22c.16-.73.35-1.62.55-2.65,1.82-8.92,5.52-27,11-37.11.25-.47,1-1.69,1.33-2.29,0,0-1.75.49-2.65.82-2.55.93-5.16,2.2-7,3.07l1.71-2,0,0c7.26-10,12.84-15.13,22.28-20.13,1.06-.56,2.16-1.12,3.32-1.68l.39-.18Z"/><polyline class="cls-1" points="49.46 153.36 55.21 205.85 61.1 153.38 55.28 153.37 49.46 153.36"/><polyline class="cls-1" points="55.29 147.18 48.8 147.18 48.77 147.18 48.79 147.36 49.22 151.62 55.29 151.62 61.35 151.63 61.78 147.38 61.81 147.19 61.78 147.19 55.29 147.18"/><polyline class="cls-1" points="60.42 145.44 60.42 142.17 58.3 142.17 52.3 142.16 50.18 142.16 50.17 145.43 60.42 145.44"/><path class="cls-2" d="M210.41,105.44a39.52,39.52,0,0,0-8-5.18c-8.36-4.1-12.63-6.12-14.62-9.24-1.1-1.72-1.52-3.75-1.52-6.68a4.31,4.31,0,0,1,2.36-3.79,8.37,8.37,0,0,1,4.12-1,6.83,6.83,0,0,1,3.7,1,4.31,4.31,0,0,1,2.1,3.69V91h19.66c-.08-7.07,1.33-12.71,4.48-17.73h-4.48c-2.56-3.86-7.91-7-13.2-8.88a35.88,35.88,0,0,0-12.26-2.05,42,42,0,0,0-13.5,2.05,29,29,0,0,0-6.67,3.19,21.82,21.82,0,0,0-7.75,8.53,18.8,18.8,0,0,0-1.54,4.41,18.27,18.27,0,0,0-.42,3.9,25.75,25.75,0,0,0,.85,6.57,25,25,0,0,0,1.11,3.29,28.71,28.71,0,0,0,7.75,10.52l.7.61a39.74,39.74,0,0,0,6,4.06c12.84,7.3,18.51,9.87,18.51,16.65a5.21,5.21,0,0,1-.91,3.19c-1,1.41-3,2.14-5.9,2.14-2.78,0-4.86-.82-6.1-2.14a4.74,4.74,0,0,1-1.28-3.3V119H163.64c.08,7.52-1.42,13.51-4.76,18.85h4.76c1.76,2.8,5.57,5.12,9,6.87a30.17,30.17,0,0,0,4.64,1.91,49.32,49.32,0,0,0,14.85,2,39.52,39.52,0,0,0,13-2,25.48,25.48,0,0,0,12-8.23,19.43,19.43,0,0,0,3.92-9,18.65,18.65,0,0,0,.24-2.79A25.45,25.45,0,0,0,217,112.94a32.59,32.59,0,0,0-6.6-7.5"/><path class="cls-2" d="M280.49,64.42H258.72V127c0,2.16-2,3.49-4.62,3.49-2.47,0-4.52-1.33-4.52-3.49V64.42H222c3.44,2.79,5,5.91,4.89,9.84v54c0,11.2,11.71,20.34,27.22,20.34s26.39-9.14,26.39-20.34V73.38h0c.16-3.52,1.69-6.39,4.86-9h-4.88"/><path class="cls-2" d="M126.12,118.14l3.39-26,2.88,26h-6.27m18.16-48.7a13,13,0,0,1,4-5H112.1a13.27,13.27,0,0,1,4,5L102.4,146.59H122l1.64-10.79h10.57l1.14,10.79h22.79Z"/></g></g></svg>